<?xml version="1.0" standalone="no"?>
<!DOCTYPE svg PUBLIC "-//W3C//DTD SVG 20010904//EN"
 "http://www.w3.org/TR/2001/REC-SVG-20010904/DTD/svg10.dtd">
<svg version="1.0" xmlns="http://www.w3.org/2000/svg"
 width="1024.000000pt" height="1024.000000pt" viewBox="0 0 1024.000000 1024.000000"
 preserveAspectRatio="xMidYMid meet">
<metadata>
Created by potrace 1.11, written by Peter Selinger 2001-2013
</metadata>
<g transform="translate(0.000000,1024.000000) scale(0.100000,-0.100000)"
fill="#000000" stroke="none">
<path d="M5122 8533 l3 -1708 1695 -1 c932 0 1700 1 1705 3 7 2 10 576 10
1706 l0 1702 -1708 3 -1707 2 2 -1707z"/>
<path d="M1708 6816 c-4 -10 -2 -3381 1 -3397 0 -4 763 -7 1694 -7 930 -1
1698 -1 1705 -1 9 -1 12 -349 12 -1706 l0 -1705 1708 0 1707 0 -1 1698 c-1
933 -2 1702 -3 1707 -1 7 -573 10 -1703 10 l-1703 0 -5 1706 -5 1707 -1702 0
c-1255 0 -1703 -3 -1705 -12z"/>
</g>
</svg>
